<svg width="24" height="15" viewBox="0 0 24 15" fill="none" xmlns="http://www.w3.org/2000/svg">
<g opacity="0.8">
<path d="M11.9942 1.6787L22.4234 9.53263C22.784 9.80415 23.3687 9.80415 23.7293 9.53263C24.0898 9.26103 24.0898 8.8208 23.7293 8.54924L12.6472 0.203623C12.2866 -0.0678541 11.7019 -0.0678541 11.3413 0.203623L0.259216 8.54924C-0.095108 8.82553 -0.0849342 9.2658 0.281944 9.53263C0.639839 9.7929 1.2072 9.7929 1.56504 9.53263L11.9942 1.6787Z" fill="#747C9C" fill-opacity="0.33"/>
<path d="M11.9942 1.05277L12.295 1.27929L22.7242 9.1332C22.7242 9.1332 22.7242 9.13321 22.7242 9.13322C22.8036 9.193 22.9293 9.23627 23.0764 9.23627C23.2233 9.23627 23.349 9.19303 23.4284 9.13328C23.4666 9.10453 23.4841 9.07978 23.4918 9.06558C23.4992 9.05186 23.4996 9.04399 23.4996 9.04092C23.4996 9.03785 23.4992 9.02999 23.4918 9.01628C23.4841 9.0021 23.4666 8.97735 23.4284 8.94861L12.3464 0.603077C12.3464 0.603062 12.3464 0.603048 12.3464 0.603034C12.267 0.543273 12.1413 0.500015 11.9942 0.500015C11.8472 0.500015 11.7215 0.543294 11.6421 0.603077L0.564053 8.9456C0.529158 8.97334 0.51347 8.99668 0.506794 9.00972C0.500206 9.02259 0.499926 9.02988 0.499996 9.03293C0.500069 9.03607 0.500769 9.04455 0.508999 9.0591L11.9942 1.05277ZM11.9942 1.05277L11.6935 1.27929L1.26823 9.13023C1.0852 9.261 0.75773 9.26038 0.576038 9.12826L11.9942 1.05277Z" stroke="#747C9C" stroke-opacity="0.33"/>
<path d="M11.9946 6.76889L22.4238 14.6228C22.7844 14.8943 23.369 14.8943 23.7296 14.6228C24.0901 14.3512 24.0901 13.911 23.7296 13.6394L12.6475 5.29382C12.2869 5.02234 11.7023 5.02234 11.3417 5.29382L0.259583 13.6394C-0.0947418 13.9157 -0.084568 14.356 0.28231 14.6228C0.640205 14.8831 1.20757 14.8831 1.56541 14.6228L11.9946 6.76889Z" fill="#747C9C" fill-opacity="0.33"/>
<path d="M11.9946 6.14297L12.2954 6.36948L22.7246 14.2234C22.7246 14.2234 22.7246 14.2234 22.7246 14.2234C22.804 14.2832 22.9297 14.3265 23.0767 14.3265C23.2237 14.3265 23.3493 14.2832 23.4288 14.2235C23.4669 14.1947 23.4845 14.17 23.4921 14.1558C23.4995 14.1421 23.5 14.1342 23.5 14.1311C23.5 14.128 23.4995 14.1202 23.4922 14.1065C23.4845 14.0923 23.4669 14.0675 23.4288 14.0388L12.3468 5.69327C12.3468 5.69326 12.3468 5.69324 12.3467 5.69323C12.2673 5.63347 12.1416 5.59021 11.9946 5.59021C11.8475 5.59021 11.7218 5.63349 11.6424 5.69327L0.564419 14.0358C0.529524 14.0635 0.513836 14.0869 0.50716 14.0999C0.500572 14.1128 0.500292 14.1201 0.500362 14.1231C0.500435 14.1263 0.501135 14.1347 0.509365 14.1493L11.9946 6.14297ZM11.9946 6.14297L11.6938 6.36948L1.2686 14.2204C1.08557 14.3512 0.758097 14.3506 0.576405 14.2185L11.9946 6.14297Z" stroke="#747C9C" stroke-opacity="0.33"/>
</g>
</svg>
