<svg width="0" height="0" class="hidden">
  <symbol viewBox="0 0 24 15" fill="none" xmlns="http://www.w3.org/2000/svg" id="arr-svg">
    <g opacity=".8">
      <path d="M11.994 1.679l10.43 7.854c.36.271.945.271 1.305 0 .36-.272.36-.712 0-.984L12.647.204c-.36-.272-.945-.272-1.306 0L.26 8.549c-.354.277-.344.717.023.984.358.26.925.26 1.283 0l10.43-7.854z" fill="#747C9C" fill-opacity=".33"></path>
      <path d="M11.994 1.053l.301.226 10.43 7.854a.59.59 0 0 0 .351.103.597.597 0 0 0 .352-.103.22.22 0 0 0 .064-.067.051.051 0 0 0 .008-.025c0-.003 0-.011-.008-.025a.22.22 0 0 0-.064-.067L12.346.603A.597.597 0 0 0 11.994.5a.596.596 0 0 0-.352.103L.564 8.946a.206.206 0 0 0-.057.064.048.048 0 0 0-.007.023c0 .003 0 .012.009.026l11.485-8.006zm0 0l-.3.226L1.268 9.13a.657.657 0 0 1-.692-.002l11.418-8.075z" stroke="#747C9C" stroke-opacity=".33"></path>
      <path d="M11.995 6.769l10.429 7.854c.36.271.945.271 1.306 0 .36-.272.36-.712 0-.984L12.648 5.294c-.361-.272-.946-.272-1.306 0L.26 13.639c-.355.277-.345.717.022.984.358.26.926.26 1.283 0l10.43-7.854z" fill="#747C9C" fill-opacity=".33"></path>
      <path d="M11.995 6.143l.3.226 10.43 7.854c.079.06.205.103.352.103a.597.597 0 0 0 .352-.103.22.22 0 0 0 .063-.067.052.052 0 0 0 .008-.025c0-.003 0-.01-.008-.024a.221.221 0 0 0-.063-.068L12.347 5.693a.597.597 0 0 0-.352-.103.597.597 0 0 0-.353.103L.564 14.036a.206.206 0 0 0-.057.064.048.048 0 0 0-.007.023c0 .003.001.012.01.026l11.485-8.006zm0 0l-.301.226L1.269 14.22a.657.657 0 0 1-.693-.002l11.419-8.075z" stroke="#747C9C" stroke-opacity=".33"></path>
    </g>
  </symbol>
</svg>